<svg width="300" height="300" version="1.1" viewBox="0 0 213.07 211.26" xmlns="http://www.w3.org/2000/svg" xmlns:xlink="http://www.w3.org/1999/xlink"><defs><radialGradient id="a" cx="40.636" cy="36.636" r="14.273" gradientTransform="matrix(3.6654 0 0 3.6826 -39.914 -27.847)" gradientUnits="userSpaceOnUse"><stop stop-color="#7e7e7e" offset="0"/><stop stop-color="#7e7e7e" stop-opacity="0" offset="1"/></radialGradient><radialGradient id="b" cx="39.636" cy="39.091" r="29.409" gradientTransform="matrix(3.6637 0 0 3.6622 -36.91 -35.884)" gradientUnits="userSpaceOnUse"><stop stop-color="#888" offset="0"/><stop stop-color="#090909" offset="1"/></radialGradient></defs><g transform="translate(-1.7664 -2.0293)"><circle cx="108.31" cy="107.27" r="105.92" fill="url(#b)" stroke-opacity="0"/><ellipse cx="108.53" cy="107.27" rx="62.416" ry="63.063" fill="#b2b2b2" stroke="#000" stroke-width="1.8814"/><ellipse cx="109.04" cy="107.07" rx="52.316" ry="52.56" fill="#fff" stroke="url(#a)" stroke-width="1.8133"/><ellipse cx="109.04" cy="107.62" rx="19.498" ry="19.203" fill="#b0b0b0" stroke-width="0"/><ellipse cx="109.18" cy="107.11" rx="11.624" ry="11.574" fill="#fff" stroke="#3b3b3b" stroke-width="2.8104"/><g fill="#b2b2b2" stroke-width="0"><rect x="105.07" y="52.18" width="8.5049" height="38.742"/><rect transform="matrix(.6039 .79706 -.79373 .60827 0 0)" x="147.43" y="-5.7793" width="8.5356" height="38.603"/><rect transform="matrix(-.65708 .75382 -.75009 -.66133 0 0)" x="3.0389" y="-207.39" width="8.5324" height="38.618"/><rect transform="matrix(-.17928 .9838 -.9835 -.18089 0 0)" x="79.077" y="-182.09" width="8.5526" height="38.526"/><rect transform="matrix(.44442 .89582 -.89378 .4485 0 0)" x="140.31" y="-106.99" width="8.5438" height="38.566"/><rect transform="matrix(.86105 .50852 -.50442 .86346 0 0)" x="144.46" y="-18.297" width="8.5155" height="38.694"/><rect transform="matrix(.10577 .99439 -.99426 .10697 0 0)" x="112.53" y="-80.535" width="8.5529" height="38.524"/><rect transform="matrix(.8195 -.57308 .5687 .82255 0 0)" x="26.662" y="96.231" width="8.5207" height="38.671"/><rect transform="matrix(-.40022 .91642 -.91504 -.40336 0 0)" x="47.719" y="-124.9" width="8.5492" height="38.541"/><rect transform="matrix(.95505 .29645 -.29338 .95599 0 0)" x="131.45" y="84.716" width="8.5091" height="38.723"/><rect transform="matrix(.93663 -.35033 .34684 .93793 0 0)" x="59.908" y="153.58" width="8.5108" height="38.715"/></g></g></svg>
